<svg width="116" height="106" viewBox="0 0 116 106" fill="none" xmlns="http://www.w3.org/2000/svg">
<g clip-path="url(#clip0_124_1054)">
<path d="M56.5875 77.9625C57.064 77.5914 57.4438 77.1108 57.6947 76.5614C57.9456 76.0121 58.06 75.4102 58.0284 74.8071C57.9967 74.204 57.8198 73.6175 57.5128 73.0974C57.2058 72.5773 56.7777 72.1391 56.265 71.82L56.25 49.9875L52.5 52.5V71.8125C51.9924 72.1309 51.5686 72.5663 51.2639 73.0822C50.9592 73.5981 50.7826 74.1795 50.7488 74.7777C50.715 75.3759 50.825 75.9735 51.0697 76.5204C51.3144 77.0674 51.6865 77.5477 52.155 77.9212L50.7375 79.8037C49.4768 81.4076 48.7785 83.3814 48.75 85.4212V90.0037H51.8062C52.5404 90.0037 53.2537 89.7588 53.833 89.3078C54.4124 88.8568 54.8248 88.2255 55.005 87.5137L56.2463 82.5037V90.0037H59.9963V85.4663C59.9637 83.4167 59.2603 81.4342 57.9938 79.8225L56.5875 77.9625ZM30 30L0 45L30 63.75L60 45L30 30Z" fill="url(#paint0_linear_124_1054)"/>
<path d="M30 67.5L11.25 55.0125V61.425C11.25 64.8375 22.275 75 30 75C37.725 75 48.75 64.8375 48.75 61.425V55.0125L30 67.5Z" fill="url(#paint1_linear_124_1054)"/>
</g>
<g clip-path="url(#clip1_124_1054)">
<path d="M109.971 84.7337C110.813 84.0782 111.484 83.2291 111.927 82.2585C112.37 81.288 112.573 80.2248 112.517 79.1593C112.461 78.0938 112.148 77.0576 111.606 76.1388C111.064 75.22 110.307 74.4458 109.401 73.882L109.375 31.3112L102.75 35.75V73.8687C101.853 74.4313 101.104 75.2005 100.566 76.1119C100.028 77.0233 99.7159 78.0505 99.6562 79.1073C99.5965 80.1641 99.7909 81.2199 100.223 82.1861C100.655 83.1524 101.313 84.001 102.141 84.6609L99.6362 87.9866C97.409 90.8201 96.1753 94.3072 96.125 97.9109V106.007H101.524C102.821 106.007 104.081 105.574 105.105 104.777C106.129 103.98 106.857 102.865 107.175 101.608L109.368 92.7566V106.007H115.993V97.9904C115.936 94.3695 114.693 90.8672 112.456 88.0198L109.971 84.7337ZM63 0L10 26.5L63 59.625L116 26.5L63 0Z" fill="url(#paint2_linear_124_1054)"/>
<path d="M63 60.25L29.875 39.1887V55.5175C29.875 61.5462 49.3525 79.5 63 79.5C76.6475 79.5 96.125 61.5462 96.125 55.5175V39.1887L63 60.25Z" fill="url(#paint3_linear_124_1054)"/>
</g>
<defs>
<linearGradient id="paint0_linear_124_1054" x1="-5.12195" y1="29.7561" x2="55.8551" y2="59.9988" gradientUnits="userSpaceOnUse">
<stop stop-color="#59A1FF"/>
<stop offset="0.5" stop-color="#C0DBFF"/>
<stop offset="0.895456" stop-color="#3F92FF"/>
</linearGradient>
<linearGradient id="paint1_linear_124_1054" x1="8.04878" y1="54.9312" x2="33.4967" y2="78.6126" gradientUnits="userSpaceOnUse">
<stop stop-color="#59A1FF"/>
<stop offset="0.5" stop-color="#C0DBFF"/>
<stop offset="0.895456" stop-color="#3F92FF"/>
</linearGradient>
<linearGradient id="paint2_linear_124_1054" x1="0.95122" y1="-0.430919" x2="108.677" y2="52.9979" gradientUnits="userSpaceOnUse">
<stop stop-color="#59A1FF"/>
<stop offset="0.5" stop-color="#C0DBFF"/>
<stop offset="0.895456" stop-color="#3F92FF"/>
</linearGradient>
<linearGradient id="paint3_linear_124_1054" x1="24.2195" y1="44.0452" x2="69.1775" y2="85.8822" gradientUnits="userSpaceOnUse">
<stop stop-color="#2C87FF"/>
<stop offset="0.5" stop-color="#C1DCFF"/>
<stop offset="0.895456" stop-color="#3F92FF"/>
</linearGradient>
<clipPath id="clip0_124_1054">
<rect width="60" height="60" fill="white" transform="translate(0 30)"/>
</clipPath>
<clipPath id="clip1_124_1054">
<rect width="106" height="106" fill="white" transform="translate(10)"/>
</clipPath>
</defs>
</svg>
