<svg width="106" height="106" viewBox="0 0 106 106" fill="none" xmlns="http://www.w3.org/2000/svg">
<g clip-path="url(#clip0_58_873)">
<path d="M99.9713 84.7337C100.813 84.0782 101.484 83.2291 101.927 82.2585C102.37 81.288 102.573 80.2248 102.517 79.1593C102.461 78.0938 102.148 77.0576 101.606 76.1388C101.064 75.22 100.307 74.4458 99.4015 73.882L99.375 31.3112L92.75 35.75V73.8687C91.8533 74.4313 91.1045 75.2005 90.5662 76.1119C90.0279 77.0233 89.7159 78.0505 89.6562 79.1073C89.5965 80.1641 89.7909 81.2199 90.2232 82.1861C90.6554 83.1524 91.3129 84.001 92.1405 84.6609L89.6362 87.9866C87.409 90.8201 86.1753 94.3072 86.125 97.9109V106.007H91.5244C92.8215 106.007 94.0815 105.574 95.105 104.777C96.1285 103.98 96.8571 102.865 97.1755 101.608L99.3684 92.7566V106.007H105.993V97.9904C105.936 94.3695 104.693 90.8672 102.456 88.0198L99.9713 84.7337ZM53 0L0 26.5L53 59.625L106 26.5L53 0Z" fill="url(#paint0_linear_58_873)"/>
<path d="M53 60.25L19.875 39.1887V55.5175C19.875 61.5462 39.3525 79.5 53 79.5C66.6475 79.5 86.125 61.5462 86.125 55.5175V39.1887L53 60.25Z" fill="url(#paint1_linear_58_873)"/>
</g>
<defs>
<linearGradient id="paint0_linear_58_873" x1="-9.04878" y1="-0.430919" x2="98.6774" y2="52.9979" gradientUnits="userSpaceOnUse">
<stop stop-color="#59A1FF"/>
<stop offset="0.5" stop-color="#C0DBFF"/>
<stop offset="0.895456" stop-color="#3F92FF"/>
</linearGradient>
<linearGradient id="paint1_linear_58_873" x1="14.2195" y1="44.0452" x2="59.1775" y2="85.8822" gradientUnits="userSpaceOnUse">
<stop stop-color="#2C87FF"/>
<stop offset="0.5" stop-color="#C1DCFF"/>
<stop offset="0.895456" stop-color="#3F92FF"/>
</linearGradient>
<clipPath id="clip0_58_873">
<rect width="106" height="106" fill="white"/>
</clipPath>
</defs>
</svg>
