<svg width="124" height="106" viewBox="0 0 124 106" fill="none" xmlns="http://www.w3.org/2000/svg">
<path d="M25.0992 43.0667L34.3158 31.1344C34.9742 30.2567 35.7565 29.6126 36.6628 29.2022C37.5691 28.7919 38.5149 28.5856 39.5002 28.5834C40.4855 28.5812 41.4324 28.7875 42.3409 29.2022C43.2494 29.617 44.0306 30.261 44.6846 31.1344L53.9012 43.0667L67.8908 47.7573C69.3172 48.1962 70.4419 49.006 71.2648 50.1866C72.0877 51.3672 72.4992 52.6696 72.4992 54.0938C72.4992 54.7521 72.4026 55.4105 72.2095 56.0688C72.0164 56.7271 71.7015 57.358 71.2648 57.9615L62.2127 70.799L62.5419 84.2948C62.5967 86.215 61.9658 87.8334 60.6492 89.1501C59.3325 90.4667 57.7964 91.1251 56.0408 91.1251C55.9311 91.1251 55.3276 91.0428 54.2304 90.8782L39.5002 86.7636L24.77 90.8782C24.4957 90.9879 24.194 91.057 23.8648 91.0856C23.5356 91.1141 23.2339 91.1273 22.9596 91.1251C21.204 91.1251 19.6679 90.4667 18.3512 89.1501C17.0346 87.8334 16.4037 86.215 16.4585 84.2948L16.7877 70.7167L7.81791 57.9615C7.37902 57.358 7.06302 56.7271 6.86991 56.0688C6.6768 55.4105 6.58134 54.7521 6.58353 54.0938C6.58353 52.7223 6.98182 51.4473 7.77841 50.2689C8.57499 49.0905 9.68538 48.2533 11.1096 47.7573L25.0992 43.0667Z" fill="url(#paint0_linear_124_890)"/>
<path d="M51.6773 28.2666L64.044 12.2562C64.9273 11.0784 65.977 10.2142 67.193 9.66361C68.4091 9.113 69.6782 8.83622 71.0002 8.83328C72.3223 8.83033 73.5928 9.10711 74.8118 9.66361C76.0308 10.2201 77.079 11.0843 77.9565 12.2562L90.3231 28.2666L109.094 34.5604C111.008 35.1492 112.517 36.2357 113.621 37.8199C114.725 39.404 115.277 41.1515 115.277 43.0624C115.277 43.9458 115.148 44.8291 114.889 45.7124C114.63 46.5958 114.207 47.4423 113.621 48.252L101.475 65.477L101.917 83.5854C101.99 86.1617 101.144 88.3333 99.3773 90.0999C97.6106 91.8666 95.5495 92.7499 93.194 92.7499C93.0467 92.7499 92.237 92.6395 90.7648 92.4187L71.0002 86.8979L51.2356 92.4187C50.8676 92.5659 50.4627 92.6587 50.021 92.6969C49.5794 92.7352 49.1745 92.7529 48.8065 92.7499C46.4509 92.7499 44.3898 91.8666 42.6231 90.0999C40.8565 88.3333 40.0099 86.1617 40.0835 83.5854L40.5252 65.3666L28.4898 48.252C27.9009 47.4423 27.4769 46.5958 27.2178 45.7124C26.9587 44.8291 26.8306 43.9458 26.8335 43.0624C26.8335 41.2222 27.368 39.5114 28.4368 37.9303C29.5056 36.3491 30.9955 35.2258 32.9065 34.5604L51.6773 28.2666Z" fill="url(#paint1_linear_124_890)"/>
<defs>
<linearGradient id="paint0_linear_124_890" x1="39.5413" y1="28.5834" x2="80.0002" y2="91" gradientUnits="userSpaceOnUse">
<stop stop-color="#3F92FF"/>
<stop offset="0.5" stop-color="#B2D3FF"/>
<stop offset="1" stop-color="#70AEFF"/>
</linearGradient>
<linearGradient id="paint1_linear_124_890" x1="71.0554" y1="8.83325" x2="71.0554" y2="92.7503" gradientUnits="userSpaceOnUse">
<stop stop-color="#60A5FF"/>
<stop offset="0.5" stop-color="#BDDAFF"/>
<stop offset="1" stop-color="#3F92FF"/>
</linearGradient>
</defs>
</svg>
