<svg width="106" height="106" viewBox="0 0 106 106" fill="none" xmlns="http://www.w3.org/2000/svg">
<path d="M33.6771 28.2666L46.0437 12.2562C46.9271 11.0784 47.9767 10.2142 49.1928 9.66361C50.4089 9.113 51.6779 8.83622 53 8.83328C54.322 8.83033 55.5926 9.10711 56.8116 9.66361C58.0306 10.2201 59.0788 11.0843 59.9562 12.2562L72.3229 28.2666L91.0937 34.5604C93.0076 35.1492 94.5166 36.2357 95.6208 37.8199C96.725 39.404 97.2771 41.1515 97.2771 43.0624C97.2771 43.9458 97.1475 44.8291 96.8884 45.7124C96.6293 46.5958 96.2067 47.4423 95.6208 48.252L83.475 65.477L83.9166 83.5854C83.9902 86.1617 83.1437 88.3333 81.3771 90.0999C79.6104 91.8666 77.5493 92.7499 75.1937 92.7499C75.0465 92.7499 74.2368 92.6395 72.7646 92.4187L53 86.8979L33.2354 92.4187C32.8673 92.5659 32.4625 92.6587 32.0208 92.6969C31.5791 92.7352 31.1743 92.7529 30.8062 92.7499C28.4507 92.7499 26.3896 91.8666 24.6229 90.0999C22.8562 88.3333 22.0097 86.1617 22.0833 83.5854L22.525 65.3666L10.4896 48.252C9.90066 47.4423 9.47666 46.5958 9.21755 45.7124C8.95844 44.8291 8.83036 43.9458 8.8333 43.0624C8.8333 41.2222 9.36772 39.5114 10.4366 37.9303C11.5054 36.3491 12.9953 35.2258 14.9062 34.5604L33.6771 28.2666Z" fill="url(#paint0_linear_58_847)"/>
<defs>
<linearGradient id="paint0_linear_58_847" x1="53.0552" y1="8.83325" x2="53.0552" y2="92.7503" gradientUnits="userSpaceOnUse">
<stop stop-color="#60A5FF"/>
<stop offset="0.5" stop-color="#BDDAFF"/>
<stop offset="1" stop-color="#3F92FF"/>
</linearGradient>
</defs>
</svg>
