<svg width="93" height="89" viewBox="0 0 93 89" fill="none" xmlns="http://www.w3.org/2000/svg">
<path d="M83.9873 66.25C86.5196 66.25 88.6543 67.1333 90.3915 68.9C92.1287 70.6667 92.9826 72.7278 92.9532 75.0833L57.4873 88.3333L26.5707 79.5V39.75H35.1832L67.2923 51.6308C69.589 52.5436 70.7373 54.1925 70.7373 56.5775C70.7373 57.9614 70.2368 59.1686 69.2357 60.1992C68.2346 61.2297 66.9684 61.7744 65.4373 61.8333H53.0707L45.3415 58.8742L43.884 63.0258L53.0707 66.25H83.9873ZM66.3207 5.4325C69.4418 1.81083 73.4168 0 78.2457 0C82.2501 0 85.6362 1.47222 88.404 4.41667C91.1718 7.36111 92.644 10.7472 92.8207 14.575C92.8207 17.6078 91.3484 21.2294 88.404 25.44C85.4596 29.6506 82.5593 33.1692 79.7032 35.9958C76.8471 38.8225 72.3862 43.0183 66.3207 48.5833C60.1962 43.0183 55.6912 38.8225 52.8057 35.9958C49.9201 33.1692 47.0198 29.6506 44.1048 25.44C41.1898 21.2294 39.7618 17.6078 39.8207 14.575C39.8207 10.5706 41.2487 7.18444 44.1048 4.41667C46.9609 1.64889 50.4059 0.176667 54.4398 0C59.1509 0 63.1112 1.81083 66.3207 5.4325ZM0 39.75H17.7373V88.3333H0V39.75Z" fill="url(#paint0_linear_61_1325)"/>
<defs>
<linearGradient id="paint0_linear_61_1325" x1="-7.93509" y1="-0.359077" x2="84.5695" y2="47.9232" gradientUnits="userSpaceOnUse">
<stop stop-color="#59A1FF"/>
<stop offset="0.5" stop-color="#C0DBFF"/>
<stop offset="0.895456" stop-color="#3F92FF"/>
</linearGradient>
</defs>
</svg>
