<svg width="106" height="106" viewBox="0 0 106 106" fill="none" xmlns="http://www.w3.org/2000/svg">
<path d="M86.125 19.875C86.125 18.1179 86.823 16.4328 88.0654 15.1904C89.3078 13.948 90.9929 13.25 92.75 13.25C94.5071 13.25 96.1922 13.948 97.4346 15.1904C98.677 16.4328 99.375 18.1179 99.375 19.875V86.125C99.375 87.8821 98.677 89.5672 97.4346 90.8096C96.1922 92.052 94.5071 92.75 92.75 92.75C90.9929 92.75 89.3078 92.052 88.0654 90.8096C86.823 89.5672 86.125 87.8821 86.125 86.125V19.875Z" fill="url(#paint0_linear_61_1347)" fill-opacity="0.31"/>
<path d="M13.25 66.25C15.0071 66.25 16.6922 66.948 17.9346 68.1904C19.177 69.4328 19.875 71.1179 19.875 72.875V86.125C19.875 87.8821 19.177 89.5672 17.9346 90.8096C16.6922 92.052 15.0071 92.75 13.25 92.75C11.4929 92.75 9.80785 92.052 8.56542 90.8096C7.32299 89.5672 6.625 87.8821 6.625 86.125V72.875C6.625 71.1179 7.32299 69.4328 8.56542 68.1904C9.80785 66.948 11.4929 66.25 13.25 66.25ZM39.75 53C41.5071 53 43.1922 53.698 44.4346 54.9404C45.677 56.1828 46.375 57.8679 46.375 59.625V86.125C46.375 87.8821 45.677 89.5672 44.4346 90.8096C43.1922 92.052 41.5071 92.75 39.75 92.75C37.9929 92.75 36.3078 92.052 35.0654 90.8096C33.823 89.5672 33.125 87.8821 33.125 86.125V59.625C33.125 57.8679 33.823 56.1828 35.0654 54.9404C36.3078 53.698 37.9929 53 39.75 53ZM66.25 33.125C68.0071 33.125 69.6922 33.823 70.9346 35.0654C72.177 36.3078 72.875 37.9929 72.875 39.75V86.125C72.875 87.8821 72.177 89.5672 70.9346 90.8096C69.6922 92.052 68.0071 92.75 66.25 92.75C64.4929 92.75 62.8078 92.052 61.5654 90.8096C60.323 89.5672 59.625 87.8821 59.625 86.125V39.75C59.625 37.9929 60.323 36.3078 61.5654 35.0654C62.8078 33.823 64.4929 33.125 66.25 33.125Z" fill="url(#paint1_linear_61_1347)"/>
<defs>
<linearGradient id="paint0_linear_61_1347" x1="84.9939" y1="12.9268" x2="101.658" y2="14.3044" gradientUnits="userSpaceOnUse">
<stop stop-color="#59A1FF"/>
<stop offset="0.5" stop-color="#C0DBFF"/>
<stop offset="0.895456" stop-color="#3F92FF"/>
</linearGradient>
<linearGradient id="paint1_linear_61_1347" x1="0.969513" y1="32.8826" x2="65.3166" y2="68.345" gradientUnits="userSpaceOnUse">
<stop stop-color="#59A1FF"/>
<stop offset="0.5" stop-color="#C0DBFF"/>
<stop offset="0.895456" stop-color="#3F92FF"/>
</linearGradient>
</defs>
</svg>
