<svg width="87" height="86" viewBox="0 0 87 86" fill="none" xmlns="http://www.w3.org/2000/svg">
<g clip-path="url(#clip0_124_958)">
<path d="M50.3333 28C46.2885 28 43 31.2512 43 35.25V78.75C43 82.7488 46.2885 86 50.3333 86H79.6667C83.7115 86 87 82.7488 87 78.75V46.125H72.3333C70.3052 46.125 68.6667 44.5051 68.6667 42.5V28H50.3333ZM72.3333 28V42.5H87L72.3333 28ZM58.3771 71.2508C57.6781 73.5504 55.5354 75.125 53.1062 75.125H52.1667C51.1583 75.125 50.3333 74.3094 50.3333 73.3125C50.3333 72.3156 51.1583 71.5 52.1667 71.5H53.1062C53.9198 71.5 54.6302 70.9789 54.8594 70.2086L56.5667 64.6012C56.9563 63.3211 58.1479 62.4375 59.5 62.4375C60.8521 62.4375 62.0438 63.3098 62.4333 64.6012L63.7625 68.9738C64.6104 68.2715 65.6875 67.875 66.8333 67.875C68.6552 67.875 70.3167 68.8945 71.1302 70.5031L71.6344 71.5H77.8333C78.8417 71.5 79.6667 72.3156 79.6667 73.3125C79.6667 74.3094 78.8417 75.125 77.8333 75.125H70.5C69.801 75.125 69.1708 74.7398 68.8615 74.1281L67.8531 72.123C67.6583 71.7379 67.2688 71.5 66.8448 71.5C66.4208 71.5 66.0198 71.7379 65.8365 72.123L64.8281 74.1281C64.4958 74.7965 63.774 75.193 63.0292 75.125C62.2844 75.057 61.6427 74.5473 61.4365 73.8449L59.5 67.5352L58.3771 71.2508Z" fill="url(#paint0_linear_124_958)"/>
</g>
<g clip-path="url(#clip1_124_958)">
<path d="M10.6667 0C4.78333 0 0 4.8207 0 10.75V75.25C0 81.1793 4.78333 86 10.6667 86H53.3333C59.2167 86 64 81.1793 64 75.25V26.875H42.6667C39.7167 26.875 37.3333 24.473 37.3333 21.5V0H10.6667ZM42.6667 0V21.5H64L42.6667 0ZM13.3333 10.75H24C25.4667 10.75 26.6667 11.9594 26.6667 13.4375C26.6667 14.9156 25.4667 16.125 24 16.125H13.3333C11.8667 16.125 10.6667 14.9156 10.6667 13.4375C10.6667 11.9594 11.8667 10.75 13.3333 10.75ZM13.3333 21.5H24C25.4667 21.5 26.6667 22.7094 26.6667 24.1875C26.6667 25.6656 25.4667 26.875 24 26.875H13.3333C11.8667 26.875 10.6667 25.6656 10.6667 24.1875C10.6667 22.7094 11.8667 21.5 13.3333 21.5ZM22.3667 64.1305C21.35 67.5402 18.2333 69.875 14.7 69.875H13.3333C11.8667 69.875 10.6667 68.6656 10.6667 67.1875C10.6667 65.7094 11.8667 64.5 13.3333 64.5H14.7C15.8833 64.5 16.9167 63.7273 17.25 62.5852L19.7333 54.2707C20.3 52.3727 22.0333 51.0625 24 51.0625C25.9667 51.0625 27.7 52.3559 28.2667 54.2707L30.2 60.7543C31.4333 59.7129 33 59.125 34.6667 59.125C37.3167 59.125 39.7333 60.6367 40.9167 63.0219L41.65 64.5H50.6667C52.1333 64.5 53.3333 65.7094 53.3333 67.1875C53.3333 68.6656 52.1333 69.875 50.6667 69.875H40C38.9833 69.875 38.0667 69.3039 37.6167 68.3969L36.15 65.4238C35.8667 64.8527 35.3 64.5 34.6833 64.5C34.0667 64.5 33.4833 64.8527 33.2167 65.4238L31.75 68.3969C31.2667 69.3879 30.2167 69.9758 29.1333 69.875C28.05 69.7742 27.1167 69.0184 26.8167 67.977L24 58.6211L22.3667 64.1305Z" fill="url(#paint1_linear_124_958)"/>
</g>
<defs>
<linearGradient id="paint0_linear_124_958" x1="45.4063" y1="42.1628" x2="97.0047" y2="64.4565" gradientUnits="userSpaceOnUse">
<stop stop-color="#3F92FF"/>
<stop offset="0.5" stop-color="#B3D4FF"/>
<stop offset="1" stop-color="#2784FF"/>
</linearGradient>
<linearGradient id="paint1_linear_124_958" x1="32" y1="0" x2="32" y2="86" gradientUnits="userSpaceOnUse">
<stop stop-color="#60A5FF"/>
<stop offset="0.5" stop-color="#BDDAFF"/>
<stop offset="1" stop-color="#3F92FF"/>
</linearGradient>
<clipPath id="clip0_124_958">
<rect width="44" height="58" fill="white" transform="translate(43 28)"/>
</clipPath>
<clipPath id="clip1_124_958">
<rect width="64" height="86" fill="white"/>
</clipPath>
</defs>
</svg>
