<svg width="89" height="89" viewBox="0 0 89 89" fill="none" xmlns="http://www.w3.org/2000/svg">
<path d="M70.225 67.9725C69.0767 64.4392 65.7642 61.8333 61.8333 61.8333H57.4167V48.5833C57.4167 47.412 56.9513 46.2886 56.1231 45.4603C55.2948 44.632 54.1714 44.1667 53 44.1667H26.5V35.3333H35.3333C36.5047 35.3333 37.6281 34.868 38.4564 34.0397C39.2847 33.2114 39.75 32.088 39.75 30.9167V22.0833H48.5833C50.9261 22.0833 53.1729 21.1527 54.8294 19.4961C56.486 17.8395 57.4167 15.5927 57.4167 13.25V11.4392C62.7011 13.5696 67.3906 16.9488 71.0837 21.2876C74.7768 25.6264 77.3636 30.7954 78.6226 36.3523C79.8816 41.9092 79.7753 47.6884 78.3128 53.1952C76.8503 58.7021 74.0752 63.7725 70.225 67.9725ZM39.75 79.1908C22.3042 77.0267 8.83333 62.1867 8.83333 44.1667C8.83333 41.4283 9.18667 38.7783 9.76083 36.2608L30.9167 57.4167V61.8333C30.9167 64.1761 31.8473 66.4229 33.5039 68.0794C35.1605 69.736 37.4073 70.6667 39.75 70.6667M44.1667 0C38.3666 0 32.6234 1.1424 27.2648 3.36199C21.9063 5.58157 17.0374 8.83486 12.9361 12.9361C4.65326 21.219 0 32.4529 0 44.1667C0 55.8804 4.65326 67.1144 12.9361 75.3972C17.0374 79.4985 21.9063 82.7518 27.2648 84.9713C32.6234 87.1909 38.3666 88.3333 44.1667 88.3333C55.8804 88.3333 67.1144 83.6801 75.3972 75.3972C83.6801 67.1144 88.3333 55.8804 88.3333 44.1667C88.3333 38.3666 87.1909 32.6234 84.9713 27.2648C82.7518 21.9063 79.4985 17.0374 75.3972 12.9361C71.296 8.83486 66.4271 5.58157 61.0685 3.36199C55.71 1.1424 49.9667 0 44.1667 0Z" fill="url(#paint0_linear_61_1309)"/>
<defs>
<linearGradient id="paint0_linear_61_1309" x1="-7.54065" y1="-0.359077" x2="82.229" y2="44.1667" gradientUnits="userSpaceOnUse">
<stop stop-color="#59A1FF"/>
<stop offset="0.5" stop-color="#C0DBFF"/>
<stop offset="0.895456" stop-color="#3F92FF"/>
</linearGradient>
</defs>
</svg>
