<svg width="106" height="106" viewBox="0 0 106 106" fill="none" xmlns="http://www.w3.org/2000/svg">
<path d="M66.25 23.8501C66.25 27.3642 64.854 30.7344 62.3691 33.2193C59.8843 35.7041 56.5141 37.1001 53 37.1001C49.4859 37.1001 46.1157 35.7041 43.6308 33.2193C41.146 30.7344 39.75 27.3642 39.75 23.8501C39.75 20.336 41.146 16.9658 43.6308 14.4809C46.1157 11.9961 49.4859 10.6001 53 10.6001C56.5141 10.6001 59.8843 11.9961 62.3691 14.4809C64.854 16.9658 66.25 20.336 66.25 23.8501ZM92.75 26.5001C92.75 29.3114 91.6332 32.0075 89.6453 33.9954C87.6574 35.9833 84.9613 37.1001 82.15 37.1001C79.3387 37.1001 76.6425 35.9833 74.6546 33.9954C72.6668 32.0075 71.55 29.3114 71.55 26.5001C71.55 23.6888 72.6668 20.9927 74.6546 19.0048C76.6425 17.0169 79.3387 15.9001 82.15 15.9001C84.9613 15.9001 87.6574 17.0169 89.6453 19.0048C91.6332 20.9927 92.75 23.6888 92.75 26.5001ZM23.85 37.1001C26.6613 37.1001 29.3574 35.9833 31.3453 33.9954C33.3332 32.0075 34.45 29.3114 34.45 26.5001C34.45 23.6888 33.3332 20.9927 31.3453 19.0048C29.3574 17.0169 26.6613 15.9001 23.85 15.9001C21.0387 15.9001 18.3425 17.0169 16.3546 19.0048C14.3668 20.9927 13.25 23.6888 13.25 26.5001C13.25 29.3114 14.3668 32.0075 16.3546 33.9954C18.3425 35.9833 21.0387 37.1001 23.85 37.1001ZM31.8 49.0251C31.8 45.3681 34.768 42.4001 38.425 42.4001H67.575C71.232 42.4001 74.2 45.3681 74.2 49.0251V74.2001C74.2 79.8227 71.9664 85.215 67.9906 89.1908C64.0149 93.1665 58.6226 95.4001 53 95.4001C47.3774 95.4001 41.9851 93.1665 38.0093 89.1908C34.0335 85.215 31.8 79.8227 31.8 74.2001V49.0251ZM26.5 49.0251C26.5 46.5712 27.242 44.2975 28.5087 42.4001H17.225C13.568 42.4001 10.6 45.3681 10.6 49.0251V68.9001C10.5997 71.1691 11.0851 73.4119 12.0236 75.4778C12.962 77.5437 14.3317 79.3848 16.0407 80.8774C17.7497 82.37 19.7584 83.4795 21.9317 84.1314C24.1051 84.7834 26.3928 84.9626 28.6412 84.657C27.2256 81.3527 26.4971 77.7949 26.5 74.2001V49.0251ZM79.5 74.2001C79.5 77.9101 78.7368 81.4505 77.3588 84.657C78.0584 84.7524 78.7721 84.8001 79.5 84.8001C83.7169 84.8001 87.7611 83.1249 90.743 80.1431C93.7248 77.1613 95.4 73.117 95.4 68.9001V49.0251C95.4 45.3681 92.432 42.4001 88.775 42.4001H77.4913C78.7633 44.2975 79.5 46.5712 79.5 49.0251V74.2001Z" fill="url(#paint0_linear_58_1084)"/>
<defs>
<linearGradient id="paint0_linear_58_1084" x1="3.36095" y1="10.2554" x2="89.5398" y2="53.0001" gradientUnits="userSpaceOnUse">
<stop stop-color="#59A1FF"/>
<stop offset="0.5" stop-color="#C0DBFF"/>
<stop offset="0.895456" stop-color="#3F92FF"/>
</linearGradient>
</defs>
</svg>
