<svg width="24" height="24" viewBox="0 0 24 24" fill="none" xmlns="http://www.w3.org/2000/svg">
<path opacity="0.5" d="M10.2431 15.8971C10.2566 15.9947 10.2508 16.094 10.226 16.1893C10.2011 16.2846 10.1578 16.3741 10.0983 16.4527C10.0389 16.5313 9.96458 16.5973 9.87961 16.6472C9.79463 16.697 9.70067 16.7296 9.60309 16.7431C7.03113 17.1003 4.57395 18.0373 2.41709 19.4831C2.33522 19.5379 2.24335 19.576 2.14675 19.5952C2.05015 19.6145 1.9507 19.6145 1.85408 19.5954C1.75746 19.5762 1.66556 19.5382 1.58363 19.4835C1.50171 19.4288 1.43136 19.3585 1.37659 19.2766C1.32183 19.1947 1.28374 19.1029 1.26448 19.0063C1.24522 18.9097 1.24517 18.8102 1.26435 18.7136C1.28352 18.617 1.32154 18.5251 1.37623 18.4432C1.43092 18.3612 1.50121 18.2909 1.58309 18.2361C3.92868 16.6644 6.60051 15.6458 9.39709 15.2571C9.49467 15.2436 9.59395 15.2494 9.68928 15.2742C9.78461 15.2991 9.87411 15.3424 9.95267 15.4019C10.0312 15.4613 10.0973 15.5356 10.1471 15.6206C10.197 15.7056 10.2296 15.7995 10.2431 15.8971ZM13.7571 15.8971C13.7706 15.7995 13.8032 15.7056 13.853 15.6206C13.9029 15.5356 13.969 15.4613 14.0475 15.4019C14.1261 15.3424 14.2156 15.2991 14.3109 15.2742C14.4062 15.2494 14.5055 15.2436 14.6031 15.2571C17.3997 15.6458 20.0715 16.6644 22.4171 18.2361C22.576 18.3493 22.6845 18.52 22.7196 18.712C22.7547 18.9039 22.7136 19.1019 22.6051 19.2641C22.4966 19.4262 22.3291 19.5397 22.1383 19.5804C21.9475 19.6211 21.7483 19.5859 21.5831 19.4821C19.4262 18.0363 16.9691 17.0993 14.3971 16.7421C14.2002 16.7148 14.0222 16.6105 13.9022 16.4521C13.7822 16.2936 13.73 16.094 13.7571 15.8971Z" fill="white"/>
<path d="M7.25 7.99991C7.25011 7.09252 7.51012 6.20415 7.99927 5.43989C8.48842 4.67564 9.18624 4.06748 10.0102 3.68736C10.8341 3.30725 11.7497 3.17108 12.6486 3.29498C13.5475 3.41887 14.392 3.79764 15.0824 4.38647C15.7728 4.97531 16.2801 5.74956 16.5443 6.61765C16.8084 7.48573 16.8184 8.41132 16.573 9.2849C16.3277 10.1585 15.8372 10.9435 15.1597 11.5471C14.4822 12.1507 13.646 12.5476 12.75 12.6909V18.9999C12.75 19.1988 12.671 19.3896 12.5303 19.5302C12.3897 19.6709 12.1989 19.7499 12 19.7499C11.8011 19.7499 11.6103 19.6709 11.4697 19.5302C11.329 19.3896 11.25 19.1988 11.25 18.9999V12.6909C10.1343 12.5125 9.11871 11.9422 8.3856 11.0825C7.65249 10.2227 7.24986 9.12979 7.25 7.99991ZM12 4.74991C11.3002 4.75029 10.6192 4.97655 10.0583 5.39505C9.49735 5.81354 9.08651 6.40191 8.88685 7.07265C8.68718 7.74339 8.70935 8.46066 8.95007 9.11778C9.19078 9.77491 9.63717 10.3368 10.2229 10.7198C10.8085 11.1029 11.5022 11.2867 12.2007 11.2438C12.8993 11.201 13.5653 10.9338 14.0998 10.482C14.6342 10.0303 15.0086 9.41805 15.1672 8.73643C15.3258 8.05482 15.2601 7.34021 14.98 6.69891C14.6731 6.7658 14.3555 6.76768 14.0478 6.70442C13.7401 6.64115 13.449 6.51415 13.1934 6.33159C12.9377 6.14903 12.7231 5.91496 12.5634 5.64444C12.4037 5.37392 12.3024 5.07295 12.266 4.76091C12.1775 4.75331 12.0888 4.74964 12 4.74991Z" fill="white"/>
</svg>
