<svg width="125" height="110" viewBox="0 0 125 110" fill="none" xmlns="http://www.w3.org/2000/svg">
<path fill-rule="evenodd" clip-rule="evenodd" d="M96.0072 108.114L95.9792 108.119L95.7987 108.208L95.7479 108.218L95.7123 108.208L95.5319 108.119C95.5048 108.111 95.4844 108.115 95.4709 108.132L95.4607 108.157L95.4175 109.245L95.4302 109.296L95.4556 109.329L95.7199 109.517L95.7581 109.527L95.7886 109.517L96.0529 109.329L96.0834 109.288L96.0936 109.245L96.0504 108.16C96.0436 108.133 96.0292 108.117 96.0072 108.114ZM96.6807 107.827L96.6477 107.832L96.1774 108.068L96.152 108.094L96.1444 108.122L96.1902 109.214L96.2029 109.245L96.2232 109.263L96.7341 109.499C96.7663 109.508 96.7908 109.501 96.8078 109.479L96.8179 109.443L96.7315 107.883C96.7231 107.852 96.7061 107.834 96.6807 107.827ZM94.8634 107.832C94.8522 107.825 94.8388 107.823 94.826 107.826C94.8132 107.829 94.8021 107.836 94.7948 107.847L94.7795 107.883L94.6931 109.443C94.6948 109.474 94.7092 109.494 94.7363 109.504L94.7744 109.499L95.2853 109.263L95.3107 109.242L95.3209 109.214L95.3641 108.122L95.3565 108.091L95.3311 108.066L94.8634 107.832Z" fill="url(#paint0_linear_124_964)"/>
<path fill-rule="evenodd" clip-rule="evenodd" d="M94.5 54.0833C93.1518 54.0833 91.8588 54.6188 90.9055 55.5721C89.9522 56.5254 89.4166 57.8184 89.4166 59.1666V61.7083H86.875C85.6912 61.7083 84.5237 61.9839 83.465 62.5132C82.4062 63.0426 81.4852 63.8113 80.775 64.7583L75.6916 71.5369C74.7017 72.8567 74.1666 74.4621 74.1666 76.1119V97.2916C74.1666 99.3139 74.97 101.253 76.3999 102.683C77.8299 104.113 79.7694 104.917 81.7916 104.917H107.208C109.231 104.917 111.17 104.113 112.6 102.683C114.03 101.253 114.833 99.3139 114.833 97.2916V69.3333C114.833 67.311 114.03 65.3715 112.6 63.9416C111.17 62.5116 109.231 61.7083 107.208 61.7083V59.1666C107.208 57.8184 106.673 56.5254 105.719 55.5721C104.766 54.6188 103.473 54.0833 102.125 54.0833H94.5ZM102.125 61.7083V59.1666H94.5V61.7083H102.125ZM89.4166 79.4999C89.4166 78.8258 89.1488 78.1793 88.6722 77.7027C88.1955 77.226 87.5491 76.9583 86.875 76.9583C86.2009 76.9583 85.5544 77.226 85.0777 77.7027C84.6011 78.1793 84.3333 78.8258 84.3333 79.4999V92.2083C84.3333 92.8823 84.6011 93.5288 85.0777 94.0055C85.5544 94.4821 86.2009 94.7499 86.875 94.7499C87.5491 94.7499 88.1955 94.4821 88.6722 94.0055C89.1488 93.5288 89.4166 92.8823 89.4166 92.2083V79.4999Z" fill="url(#paint1_linear_124_964)"/>
<path fill-rule="evenodd" clip-rule="evenodd" d="M55.619 102.723L55.5704 102.732L55.2568 102.886L55.1685 102.904L55.1067 102.886L54.7931 102.732C54.746 102.717 54.7106 102.724 54.6871 102.754L54.6694 102.798L54.5943 104.688L54.6164 104.777L54.6606 104.834L55.1199 105.161L55.1862 105.178L55.2392 105.161L55.6985 104.834L55.7515 104.763L55.7692 104.688L55.6941 102.802C55.6823 102.755 55.6573 102.729 55.619 102.723ZM56.7894 102.224L56.732 102.233L55.9149 102.643L55.8707 102.687L55.8575 102.736L55.937 104.635L55.9591 104.688L55.9944 104.719L56.8822 105.13C56.9381 105.145 56.9808 105.133 57.0102 105.095L57.0279 105.033L56.8777 102.321C56.863 102.268 56.8336 102.235 56.7894 102.224ZM53.6315 102.233C53.612 102.221 53.5888 102.217 53.5665 102.222C53.5443 102.227 53.5249 102.24 53.5122 102.259L53.4857 102.321L53.3356 105.033C53.3385 105.086 53.3635 105.121 53.4107 105.139L53.4769 105.13L54.3647 104.719L54.4088 104.684L54.4265 104.635L54.5016 102.736L54.4883 102.683L54.4442 102.639L53.6315 102.233Z" fill="url(#paint2_linear_124_964)"/>
<path fill-rule="evenodd" clip-rule="evenodd" d="M53 8.83325C50.6572 8.83325 48.4104 9.7639 46.7539 11.4205C45.0973 13.077 44.1666 15.3238 44.1666 17.6666V22.0833H39.75C37.693 22.0833 35.6642 22.5622 33.8244 23.4821C31.9845 24.402 30.3842 25.7377 29.15 27.3833L20.3166 39.1625C18.5965 41.456 17.6666 44.2456 17.6666 47.1125V83.9166C17.6666 87.4307 19.0626 90.8009 21.5475 93.2858C24.0323 95.7706 27.4025 97.1666 30.9166 97.1666H75.0833C78.5974 97.1666 81.9676 95.7706 84.4525 93.2858C86.9373 90.8009 88.3333 87.4307 88.3333 83.9166V35.3333C88.3333 31.8191 86.9373 28.4489 84.4525 25.9641C81.9676 23.4792 78.5974 22.0833 75.0833 22.0833V17.6666C75.0833 15.3238 74.1526 13.077 72.4961 11.4205C70.8395 9.7639 68.5927 8.83325 66.25 8.83325H53ZM66.25 22.0833V17.6666H53V22.0833H66.25ZM44.1666 52.9999C44.1666 51.8285 43.7013 50.7051 42.873 49.8769C42.0447 49.0486 40.9213 48.5833 39.75 48.5833C38.5786 48.5833 37.4552 49.0486 36.6269 49.8769C35.7986 50.7051 35.3333 51.8285 35.3333 52.9999V75.0833C35.3333 76.2546 35.7986 77.378 36.6269 78.2063C37.4552 79.0346 38.5786 79.4999 39.75 79.4999C40.9213 79.4999 42.0447 79.0346 42.873 78.2063C43.7013 77.378 44.1666 76.2546 44.1666 75.0833V52.9999Z" fill="url(#paint3_linear_124_964)"/>
<defs>
<linearGradient id="paint0_linear_124_964" x1="94.5117" y1="107.818" x2="96.457" y2="109.022" gradientUnits="userSpaceOnUse">
<stop stop-color="#59A1FF"/>
<stop offset="0.5" stop-color="#C0DBFF"/>
<stop offset="0.895456" stop-color="#3F92FF"/>
</linearGradient>
<linearGradient id="paint1_linear_124_964" x1="70.6951" y1="53.8766" x2="115.185" y2="71.5303" gradientUnits="userSpaceOnUse">
<stop stop-color="#59A1FF"/>
<stop offset="0.5" stop-color="#C0DBFF"/>
<stop offset="0.895456" stop-color="#3F92FF"/>
</linearGradient>
<linearGradient id="paint2_linear_124_964" x1="53.0204" y1="102.208" x2="56.4007" y2="104.3" gradientUnits="userSpaceOnUse">
<stop stop-color="#59A1FF"/>
<stop offset="0.5" stop-color="#C0DBFF"/>
<stop offset="0.895456" stop-color="#3F92FF"/>
</linearGradient>
<linearGradient id="paint3_linear_124_964" x1="11.6341" y1="8.47418" x2="88.945" y2="39.1511" gradientUnits="userSpaceOnUse">
<stop stop-color="#59A1FF"/>
<stop offset="0.5" stop-color="#C0DBFF"/>
<stop offset="0.895456" stop-color="#3F92FF"/>
</linearGradient>
</defs>
</svg>
