<svg width="125" height="110" viewBox="0 0 125 110" fill="none" xmlns="http://www.w3.org/2000/svg">
<path fill-rule="evenodd" clip-rule="evenodd" d="M96.0069 108.114L95.979 108.119L95.7985 108.208L95.7477 108.218L95.7121 108.208L95.5316 108.119C95.5045 108.111 95.4842 108.115 95.4706 108.132L95.4605 108.157L95.4172 109.245L95.43 109.296L95.4554 109.329L95.7197 109.517L95.7578 109.527L95.7883 109.517L96.0527 109.329L96.0832 109.288L96.0933 109.245L96.0501 108.16C96.0433 108.133 96.0289 108.117 96.0069 108.114ZM96.6805 107.827L96.6474 107.832L96.1772 108.068L96.1518 108.094L96.1442 108.122L96.1899 109.215L96.2026 109.245L96.223 109.263L96.7338 109.499C96.766 109.508 96.7906 109.501 96.8075 109.479L96.8177 109.443L96.7313 107.883C96.7228 107.852 96.7059 107.834 96.6805 107.827ZM94.8632 107.832C94.852 107.825 94.8386 107.823 94.8258 107.826C94.813 107.829 94.8018 107.836 94.7945 107.847L94.7793 107.883L94.6929 109.443C94.6946 109.474 94.709 109.494 94.7361 109.504L94.7742 109.499L95.2851 109.263L95.3105 109.243L95.3207 109.215L95.3639 108.122L95.3562 108.091L95.3308 108.066L94.8632 107.832Z" fill="url(#paint0_linear_124_965)"/>
<path fill-rule="evenodd" clip-rule="evenodd" d="M94.4998 54.0834C93.1517 54.0834 91.8587 54.6189 90.9054 55.5722C89.9521 56.5256 89.4165 57.8185 89.4165 59.1667V61.7084H86.8748C85.6911 61.7084 84.5236 61.984 83.4648 62.5134C82.4061 63.0428 81.4851 63.8114 80.7748 64.7584L75.6915 71.537C74.7016 72.8569 74.1665 74.4622 74.1665 76.112V97.2917C74.1665 99.314 74.9699 101.253 76.3998 102.683C77.8298 104.113 79.7692 104.917 81.7915 104.917H107.208C109.23 104.917 111.17 104.113 112.6 102.683C114.03 101.253 114.833 99.314 114.833 97.2917V69.3334C114.833 67.3111 114.03 65.3717 112.6 63.9417C111.17 62.5117 109.23 61.7084 107.208 61.7084V59.1667C107.208 57.8185 106.673 56.5256 105.719 55.5722C104.766 54.6189 103.473 54.0834 102.125 54.0834H94.4998ZM102.125 61.7084V59.1667H94.4998V61.7084H102.125ZM89.4165 79.5C89.4165 78.8259 89.1487 78.1795 88.6721 77.7028C88.1954 77.2262 87.5489 76.9584 86.8748 76.9584C86.2007 76.9584 85.5543 77.2262 85.0776 77.7028C84.601 78.1795 84.3332 78.8259 84.3332 79.5V92.2084C84.3332 92.8825 84.601 93.529 85.0776 94.0056C85.5543 94.4823 86.2007 94.75 86.8748 94.75C87.5489 94.75 88.1954 94.4823 88.6721 94.0056C89.1487 93.529 89.4165 92.8825 89.4165 92.2084V79.5Z" fill="url(#paint1_linear_124_965)"/>
<path fill-rule="evenodd" clip-rule="evenodd" d="M55.6189 102.723L55.5703 102.732L55.2567 102.886L55.1684 102.904L55.1065 102.886L54.7929 102.732C54.7458 102.717 54.7105 102.724 54.6869 102.754L54.6693 102.798L54.5942 104.688L54.6163 104.777L54.6604 104.834L55.1198 105.161L55.186 105.179L55.239 105.161L55.6984 104.834L55.7514 104.763L55.769 104.688L55.6939 102.802C55.6822 102.755 55.6571 102.729 55.6189 102.723ZM56.7893 102.224L56.7319 102.233L55.9148 102.643L55.8706 102.688L55.8574 102.736L55.9369 104.635L55.9589 104.688L55.9943 104.719L56.882 105.13C56.938 105.145 56.9807 105.133 57.0101 105.095L57.0278 105.033L56.8776 102.321C56.8629 102.268 56.8334 102.236 56.7893 102.224ZM53.6314 102.233C53.6119 102.221 53.5886 102.217 53.5664 102.222C53.5442 102.227 53.5248 102.24 53.5121 102.259L53.4856 102.321L53.3354 105.033C53.3384 105.086 53.3634 105.121 53.4105 105.139L53.4768 105.13L54.3645 104.719L54.4087 104.684L54.4264 104.635L54.5014 102.736L54.4882 102.683L54.444 102.639L53.6314 102.233Z" fill="url(#paint2_linear_124_965)"/>
<path fill-rule="evenodd" clip-rule="evenodd" d="M52.9998 8.83337C50.6571 8.83337 48.4103 9.76403 46.7537 11.4206C45.0972 13.0772 44.1665 15.324 44.1665 17.6667V22.0834H39.7498C37.6928 22.0834 35.6641 22.5623 33.8243 23.4822C31.9844 24.4021 30.384 25.7378 29.1498 27.3834L20.3165 39.1626C18.5964 41.4561 17.6665 44.2457 17.6665 47.1126V83.9167C17.6665 87.4308 19.0625 90.801 21.5473 93.2859C24.0322 95.7707 27.4024 97.1667 30.9165 97.1667H75.0832C78.5973 97.1667 81.9675 95.7707 84.4523 93.2859C86.9372 90.801 88.3332 87.4308 88.3332 83.9167V35.3334C88.3332 31.8193 86.9372 28.4491 84.4523 25.9642C81.9675 23.4794 78.5973 22.0834 75.0832 22.0834V17.6667C75.0832 15.324 74.1525 13.0772 72.4959 11.4206C70.8394 9.76403 68.5926 8.83337 66.2498 8.83337H52.9998ZM66.2498 22.0834V17.6667H52.9998V22.0834H66.2498ZM44.1665 53C44.1665 51.8287 43.7012 50.7053 42.8729 49.877C42.0446 49.0487 40.9212 48.5834 39.7498 48.5834C38.5785 48.5834 37.4551 49.0487 36.6268 49.877C35.7985 50.7053 35.3332 51.8287 35.3332 53V75.0834C35.3332 76.2547 35.7985 77.3781 36.6268 78.2064C37.4551 79.0347 38.5785 79.5 39.7498 79.5C40.9212 79.5 42.0446 79.0347 42.8729 78.2064C43.7012 77.3781 44.1665 76.2547 44.1665 75.0834V53Z" fill="url(#paint3_linear_124_965)"/>
<defs>
<linearGradient id="paint0_linear_124_965" x1="94.5115" y1="107.818" x2="96.4568" y2="109.022" gradientUnits="userSpaceOnUse">
<stop stop-color="#59A1FF"/>
<stop offset="0.5" stop-color="#C0DBFF"/>
<stop offset="0.895456" stop-color="#3F92FF"/>
</linearGradient>
<linearGradient id="paint1_linear_124_965" x1="70.695" y1="53.8767" x2="115.185" y2="71.5305" gradientUnits="userSpaceOnUse">
<stop stop-color="#59A1FF"/>
<stop offset="0.5" stop-color="#C0DBFF"/>
<stop offset="0.895456" stop-color="#3F92FF"/>
</linearGradient>
<linearGradient id="paint2_linear_124_965" x1="53.0203" y1="102.208" x2="56.4006" y2="104.3" gradientUnits="userSpaceOnUse">
<stop stop-color="#59A1FF"/>
<stop offset="0.5" stop-color="#C0DBFF"/>
<stop offset="0.895456" stop-color="#3F92FF"/>
</linearGradient>
<linearGradient id="paint3_linear_124_965" x1="11.634" y1="8.4743" x2="88.9449" y2="39.1513" gradientUnits="userSpaceOnUse">
<stop stop-color="#59A1FF"/>
<stop offset="0.5" stop-color="#C0DBFF"/>
<stop offset="0.895456" stop-color="#3F92FF"/>
</linearGradient>
</defs>
</svg>
