<svg width="134" height="112" viewBox="0 0 134 112" fill="none" xmlns="http://www.w3.org/2000/svg">
<g clip-path="url(#clip0_124_809)">
<path d="M86.0509 20.9143C89.1824 20.197 92.4632 20.5356 95.3821 21.8775C98.3011 23.2193 100.694 25.4889 102.189 28.3327L112.163 47.3009C113.2 49.2748 113.77 51.4606 113.829 53.6897C113.887 55.9189 113.433 58.1317 112.501 60.1575L103.336 80.096C101.723 83.6042 98.7828 86.3281 95.1618 87.6684C91.5407 89.0087 87.5356 88.8557 84.0274 87.243L53.1628 73.0547C49.6546 71.442 46.9308 68.5018 45.5904 64.8807C44.2501 61.2597 44.4031 57.2546 46.0158 53.7464L55.1814 33.8079C56.1123 31.7815 57.4961 29.9961 59.2263 28.5894C60.9564 27.1826 62.9866 26.1921 65.1602 25.6942L86.0509 20.9143ZM77.3607 49.462C74.3183 48.0634 70.7141 49.3976 69.3155 52.4399L61.7147 68.9745L81.5562 78.0955L89.1571 61.5609C90.5556 58.5186 89.2215 54.9144 86.1791 53.5158L77.3607 49.462Z" fill="url(#paint0_linear_124_809)"/>
</g>
<path d="M40.8763 18.6338C44.3516 15.9585 48.6142 14.5078 53 14.5078C57.3858 14.5078 61.6484 15.9585 65.1237 18.6338L88.3112 36.475C90.7235 38.3319 92.6769 40.7182 94.0209 43.4497C95.3648 46.1813 96.0633 49.185 96.0625 52.2292V82.1875C96.0625 87.4586 93.9685 92.5139 90.2412 96.2412C86.514 99.9685 81.4587 102.062 76.1875 102.062H29.8125C24.5413 102.062 19.486 99.9685 15.7588 96.2412C12.0315 92.5139 9.9375 87.4586 9.9375 82.1875V52.2292C9.93669 49.185 10.6352 46.1813 11.9791 43.4497C13.3231 40.7182 15.2765 38.3319 17.6888 36.475L40.8763 18.6338ZM46.375 80C41.8037 80 38.0938 80.21 38.0938 84.7812C38.0938 86.8351 39.7587 88.5 41.8125 88.5H53H64.1875C66.2413 88.5 67.9062 86.8351 67.9062 84.7812C67.9062 81.5 64.1963 80 59.625 80H46.375Z" fill="url(#paint1_linear_124_809)"/>
<defs>
<linearGradient id="paint0_linear_124_809" x1="95.3821" y1="21.8774" x2="68.5951" y2="80.1489" gradientUnits="userSpaceOnUse">
<stop stop-color="#3F92FF"/>
<stop offset="0.302885" stop-color="#D8E9FF"/>
<stop offset="1" stop-color="#3F92FF"/>
</linearGradient>
<linearGradient id="paint1_linear_124_809" x1="53" y1="14.5078" x2="53" y2="102.062" gradientUnits="userSpaceOnUse">
<stop stop-color="#60A5FF"/>
<stop offset="0.5" stop-color="#BDDAFF"/>
<stop offset="1" stop-color="#3F92FF"/>
</linearGradient>
<clipPath id="clip0_124_809">
<rect width="77.6446" height="77.6446" fill="white" transform="translate(62.7114) rotate(24.688)"/>
</clipPath>
</defs>
</svg>
