<svg width="106" height="106" viewBox="0 0 106 106" fill="none" xmlns="http://www.w3.org/2000/svg">
<path d="M40.8763 12.6338C44.3516 9.9585 48.6142 8.50781 53 8.50781C57.3858 8.50781 61.6484 9.9585 65.1237 12.6338L88.3112 30.475C90.7235 32.3319 92.6769 34.7182 94.0209 37.4497C95.3648 40.1813 96.0633 43.185 96.0625 46.2292V76.1875C96.0625 81.4586 93.9685 86.5139 90.2412 90.2412C86.514 93.9685 81.4587 96.0625 76.1875 96.0625H29.8125C24.5413 96.0625 19.486 93.9685 15.7588 90.2412C12.0315 86.5139 9.9375 81.4586 9.9375 76.1875V46.2292C9.93669 43.185 10.6352 40.1813 11.9791 37.4497C13.3231 34.7182 15.2765 32.3319 17.6888 30.475L40.8763 12.6338ZM46.375 74C41.8037 74 38.0938 74.21 38.0938 78.7812C38.0938 80.8351 39.7587 82.5 41.8125 82.5H53H64.1875C66.2413 82.5 67.9062 80.8351 67.9062 78.7812C67.9062 75.5 64.1963 74 59.625 74H46.375Z" fill="url(#paint0_linear_58_843)"/>
<defs>
<linearGradient id="paint0_linear_58_843" x1="53" y1="8.50781" x2="53" y2="96.0625" gradientUnits="userSpaceOnUse">
<stop stop-color="#60A5FF"/>
<stop offset="0.5" stop-color="#BDDAFF"/>
<stop offset="1" stop-color="#3F92FF"/>
</linearGradient>
</defs>
</svg>
