<svg width="123" height="141" viewBox="0 0 123 141" fill="none" xmlns="http://www.w3.org/2000/svg">
<path fill-rule="evenodd" clip-rule="evenodd" d="M55.7648 38.1055C57.3005 35.2982 61.3341 35.2982 62.8698 38.1055L66.0967 44.0052C66.7657 45.2285 67.7714 46.2343 68.9947 46.9033L74.8945 50.1302C77.7018 51.6658 77.7018 55.6994 74.8945 57.2351L68.9947 60.462C67.7714 61.131 66.7657 62.1368 66.0967 63.3601L62.8698 69.2598C61.3341 72.0671 57.3005 72.0671 55.7648 69.2598L52.5379 63.3601C51.8689 62.1368 50.8632 61.131 49.6399 60.462L43.7401 57.2351C40.9328 55.6994 40.9328 51.6658 43.7401 50.1302L49.6399 46.9033C50.8632 46.2343 51.8689 45.2285 52.5379 44.0052L55.7648 38.1055ZM46.191 43.2504L41.409 45.8665C35.229 49.2457 35.229 58.1196 41.409 61.4988L47.3088 64.7256C47.7163 64.9486 48.0513 65.2836 48.2743 65.6911L51.5012 71.5909C53.3317 74.9392 56.7756 76.4733 60.0868 76.1914C58.4996 82.6769 54.792 88.4466 49.5524 92.585C49.2804 93.554 48.9963 94.5196 48.7003 95.4815C47.9389 97.9664 45.8249 99.8698 43.1083 100.153C40.7546 100.398 36.8635 100.66 30.9686 100.66C25.0737 100.66 21.1826 100.398 18.8289 100.153C16.1123 99.8698 13.9999 97.9664 13.2369 95.4815C12.9409 94.5196 12.6569 93.554 12.3848 92.585C5.45479 87.1 1 78.6051 1 69.0719C1 52.5212 14.4178 39.1034 30.9686 39.1034C36.525 39.1034 41.7298 40.6164 46.191 43.2504ZM17.1134 103.965C17.5346 104.062 17.9655 104.134 18.4061 104.18C20.9202 104.443 24.9538 104.71 30.967 104.71C36.9802 104.71 41.0121 104.443 43.5279 104.18C44.1042 104.12 44.6747 104.014 45.2337 103.861L45.1818 104.347C44.8012 107.854 42.287 111.033 38.4381 111.54C35.9601 111.853 33.4646 112.007 30.967 112C27.7757 112 25.2989 111.77 23.4797 111.494C20.1313 110.987 17.9266 108.327 17.3677 105.344C17.2867 104.913 17.202 104.452 17.1134 103.965Z" fill="url(#paint0_linear_124_1062)"/>
<path fill-rule="evenodd" clip-rule="evenodd" d="M92.7614 4.16056C94.8549 0.333523 100.354 0.333523 102.447 4.16056L106.846 12.2033C107.758 13.8709 109.129 15.242 110.797 16.154L118.84 20.553C122.667 22.6465 122.667 28.1453 118.84 30.2388L110.797 34.6378C109.129 35.5498 107.758 36.9209 106.846 38.5885L102.447 46.6312C100.354 50.4583 94.8549 50.4583 92.7614 46.6312L88.3624 38.5885C87.4504 36.9209 86.0793 35.5498 84.4117 34.6378L76.3689 30.2388C72.5419 28.1453 72.5419 22.6465 76.3689 20.553L84.4117 16.154C86.0793 15.242 87.4504 13.8709 88.3624 12.2033L92.7614 4.16056ZM79.7101 11.1742L73.1911 14.7407C64.7663 19.3473 64.7663 31.4445 73.1911 36.0511L81.2339 40.4501C81.7894 40.754 82.2461 41.2108 82.55 41.7663L86.949 49.809C89.4445 54.3736 94.1394 56.4649 98.6532 56.0807C96.4895 64.9219 91.4352 72.7873 84.2924 78.429C83.9216 79.7499 83.5344 81.0662 83.1308 82.3775C82.0929 85.7651 79.211 88.3599 75.5077 88.7464C72.299 89.0798 66.9945 89.4376 58.9584 89.4376C50.9223 89.4376 45.6179 89.0798 42.4092 88.7464C38.7058 88.3599 35.8261 85.7651 34.786 82.3775C34.3825 81.0662 33.9952 79.7499 33.6244 78.429C24.1772 70.9516 18.1042 59.3711 18.1042 46.3751C18.1042 23.8125 36.3959 5.5209 58.9584 5.5209C66.533 5.5209 73.6284 7.58348 79.7101 11.1742ZM40.0705 93.9426C40.6447 94.0751 41.2321 94.173 41.8328 94.2363C45.2601 94.594 50.7589 94.9584 58.9562 94.9584C67.1535 94.9584 72.6501 94.594 76.0796 94.2363C76.8653 94.1545 77.6429 94.009 78.405 93.8012L78.3343 94.4637C77.8154 99.2448 74.388 103.578 69.141 104.269C65.763 104.696 62.3611 104.905 58.9562 104.896C54.6058 104.896 51.2292 104.582 48.7493 104.207C44.1847 103.516 41.1791 99.8896 40.4172 95.8218C40.3068 95.2344 40.1913 94.6065 40.0705 93.9426Z" fill="url(#paint1_linear_124_1062)"/>
<defs>
<linearGradient id="paint0_linear_124_1062" x1="-5.4878" y1="35.6911" x2="71.7479" y2="74" gradientUnits="userSpaceOnUse">
<stop stop-color="#59A1FF"/>
<stop offset="0.5" stop-color="#C0DBFF"/>
<stop offset="0.895456" stop-color="#3F92FF"/>
</linearGradient>
<linearGradient id="paint1_linear_124_1062" x1="9.25987" y1="0.869123" x2="114.55" y2="53.093" gradientUnits="userSpaceOnUse">
<stop stop-color="#59A1FF"/>
<stop offset="0.5" stop-color="#C0DBFF"/>
<stop offset="0.895456" stop-color="#3F92FF"/>
</linearGradient>
</defs>
</svg>
