<svg width="123" height="141" viewBox="0 0 123 141" fill="none" xmlns="http://www.w3.org/2000/svg">
<path fill-rule="evenodd" clip-rule="evenodd" d="M55.7648 38.1055C57.3005 35.2982 61.3341 35.2982 62.8698 38.1055L66.0967 44.0052C66.7657 45.2285 67.7714 46.2343 68.9947 46.9033L74.8945 50.1302C77.7018 51.6658 77.7018 55.6994 74.8945 57.2351L68.9947 60.462C67.7714 61.131 66.7657 62.1368 66.0967 63.3601L62.8698 69.2598C61.3341 72.0671 57.3005 72.0671 55.7648 69.2598L52.5379 63.3601C51.8689 62.1368 50.8632 61.131 49.6399 60.462L43.7401 57.2351C40.9328 55.6994 40.9328 51.6658 43.7401 50.1302L49.6399 46.9033C50.8632 46.2343 51.8689 45.2285 52.5379 44.0052L55.7648 38.1055ZM46.191 43.2504L41.409 45.8665C35.229 49.2457 35.229 58.1196 41.409 61.4988L47.3088 64.7256C47.7163 64.9486 48.0513 65.2836 48.2743 65.6911L51.5012 71.5909C53.3317 74.9392 56.7756 76.4733 60.0868 76.1914C58.4996 82.6769 54.792 88.4466 49.5524 92.585C49.2804 93.554 48.9963 94.5196 48.7003 95.4815C47.9389 97.9664 45.8249 99.8698 43.1083 100.153C40.7546 100.398 36.8635 100.66 30.9686 100.66C25.0737 100.66 21.1826 100.398 18.8289 100.153C16.1123 99.8698 13.9999 97.9664 13.2369 95.4815C12.9409 94.5196 12.6569 93.554 12.3848 92.585C5.45479 87.1 1 78.6051 1 69.0719C1 52.5212 14.4178 39.1034 30.9686 39.1034C36.525 39.1034 41.7298 40.6164 46.191 43.2504ZM17.1134 103.965C17.5346 104.062 17.9655 104.134 18.4061 104.18C20.9202 104.443 24.9538 104.71 30.967 104.71C36.9802 104.71 41.0121 104.443 43.5279 104.18C44.1042 104.12 44.6747 104.014 45.2337 103.861L45.1818 104.347C44.8012 107.854 42.287 111.033 38.4381 111.54C35.9601 111.853 33.4646 112.007 30.967 112C27.7757 112 25.2989 111.77 23.4797 111.494C20.1313 110.987 17.9266 108.327 17.3677 105.344C17.2867 104.913 17.202 104.452 17.1134 103.965Z" fill="url(#paint0_linear_124_1063)"/>
<path fill-rule="evenodd" clip-rule="evenodd" d="M92.7611 4.16056C94.8546 0.333523 100.353 0.333523 102.447 4.16056L106.846 12.2033C107.758 13.8709 109.129 15.242 110.797 16.154L118.839 20.553C122.666 22.6465 122.666 28.1453 118.839 30.2388L110.797 34.6378C109.129 35.5498 107.758 36.9209 106.846 38.5885L102.447 46.6312C100.353 50.4583 94.8546 50.4583 92.7611 46.6312L88.3621 38.5885C87.4501 36.9209 86.079 35.5498 84.4114 34.6378L76.3687 30.2388C72.5416 28.1453 72.5416 22.6465 76.3687 20.553L84.4114 16.154C86.079 15.242 87.4501 13.8709 88.3621 12.2033L92.7611 4.16056ZM79.7099 11.1742L73.1909 14.7407C64.7661 19.3473 64.7661 31.4445 73.1909 36.0511L81.2336 40.4501C81.7891 40.754 82.2459 41.2108 82.5498 41.7663L86.9488 49.809C89.4442 54.3736 94.1391 56.4649 98.653 56.0807C96.4892 64.9219 91.435 72.7873 84.2922 78.429C83.9213 79.7499 83.5341 81.0662 83.1306 82.3775C82.0927 85.7651 79.2108 88.3599 75.5074 88.7464C72.2987 89.0798 66.9943 89.4376 58.9582 89.4376C50.922 89.4376 45.6176 89.0798 42.4089 88.7464C38.7055 88.3599 35.8259 85.7651 34.7858 82.3775C34.3822 81.0662 33.995 79.7499 33.6242 78.429C24.1769 70.9516 18.104 59.3711 18.104 46.3751C18.104 23.8125 36.3956 5.5209 58.9582 5.5209C66.5328 5.5209 73.6281 7.58348 79.7099 11.1742ZM40.0703 93.9426C40.6445 94.0751 41.2319 94.173 41.8325 94.2363C45.2599 94.594 50.7586 94.9584 58.956 94.9584C67.1533 94.9584 72.6498 94.594 76.0794 94.2363C76.865 94.1545 77.6427 94.009 78.4048 93.8012L78.3341 94.4637C77.8151 99.2448 74.3878 103.578 69.1408 104.269C65.7628 104.696 62.3608 104.905 58.956 104.896C54.6055 104.896 51.229 104.582 48.749 104.207C44.1844 103.516 41.1789 99.8896 40.417 95.8218C40.3066 95.2344 40.191 94.6065 40.0703 93.9426Z" fill="url(#paint1_linear_124_1063)"/>
<defs>
<linearGradient id="paint0_linear_124_1063" x1="-5.4878" y1="35.6911" x2="71.7479" y2="74" gradientUnits="userSpaceOnUse">
<stop stop-color="#59A1FF"/>
<stop offset="0.5" stop-color="#C0DBFF"/>
<stop offset="0.895456" stop-color="#3F92FF"/>
</linearGradient>
<linearGradient id="paint1_linear_124_1063" x1="9.25962" y1="0.869123" x2="114.55" y2="53.093" gradientUnits="userSpaceOnUse">
<stop stop-color="#59A1FF"/>
<stop offset="0.5" stop-color="#C0DBFF"/>
<stop offset="0.895456" stop-color="#3F92FF"/>
</linearGradient>
</defs>
</svg>
